<svg width="167" height="71" viewBox="0 0 167 71" fill="none" xmlns="http://www.w3.org/2000/svg">
<g clip-path="url(#clip0_1_476)">
<path d="M103.079 30.8193C105.286 28.4174 107.77 26.2676 108.911 22.9833C110.392 18.7257 112.977 15.2839 117.372 13.6172C119.485 12.8189 122.492 15.2804 122.097 17.5317C121.236 22.4371 118.281 25.7144 113.844 27.528C112.012 28.2773 111.374 29.3207 111.502 31.1344C111.568 32.0518 111.589 32.9691 111.638 34.079C116.865 32.787 119.658 29.4678 120.772 24.5064C123.633 26.5652 123.967 28.2038 122.104 31.0364C119.925 34.3451 116.768 36.1168 112.98 36.8171C111.162 37.1532 108.307 34.7863 107.863 32.619C107.645 31.5406 107.568 30.4306 107.398 29.1106C105.664 31.488 104.009 33.7464 102.33 36.0468C99.8983 34.9999 98.75 33.0671 98.0007 30.8613C96.1482 32.3704 94.3027 33.8479 92.4918 35.364C91.6038 36.1063 90.7677 36.1028 89.8276 35.4691C87.7184 34.0545 86.0117 32.4229 86.6083 29.1632C84.4818 31.1204 82.664 32.794 80.8601 34.4537C77.8871 33.2562 76.8464 30.8193 78.0641 27.9307C78.4457 27.0203 78.8515 26.1205 79.2817 25.2312C79.6772 24.4189 80.1212 23.6311 80.5444 22.8328C80.3779 22.7172 80.2079 22.6017 80.0414 22.4826C78.1265 25.0281 76.1561 27.5315 74.3244 30.1365C73.3635 31.5056 72.5968 33.0251 71.8441 34.5272C71.4243 35.3605 70.9213 35.4481 70.172 35.1189C68.4583 34.3696 67.8408 32.7695 68.5936 31.0224C69.1902 29.6358 69.773 28.2423 70.3524 26.8488C70.3871 26.7648 70.3142 26.6352 70.6195 26.8628C68.2779 29.0091 66.0022 31.236 63.5634 33.2667C62.5678 34.093 61.6693 35.6546 59.862 34.5902C57.7979 33.3718 57.2047 32.2828 57.4787 29.7269C57.5134 29.3978 57.5204 29.0651 57.5273 28.9356C55.6887 30.6652 53.7738 32.4579 51.8276 34.2891C54.8561 34.8283 57.7285 35.3675 60.6113 35.8437C61.8081 36.0398 62.488 36.6805 62.606 37.8745C62.7725 39.5201 62.8835 41.1692 63.0535 43.235C57.7597 39.5761 52.2335 39.1805 46.4055 39.0929C48.4523 40.1538 47.8174 41.3408 46.9918 42.7098C45.6319 44.9682 44.4178 47.3176 43.4464 49.8035C45.2954 47.4751 47.1132 45.1222 49.0038 42.8289C51.3004 40.0418 51.9387 40.0698 54.4433 42.9374C52.9377 45.868 51.4148 48.8266 49.8954 51.7888C49.9405 51.8063 49.989 51.8238 50.0341 51.8448C52.0982 49.5269 54.1068 47.1565 56.2403 44.9051C58.3356 42.6923 58.9912 42.7868 60.8055 45.0137C58.9739 48.7811 57.1908 52.454 55.4042 56.1234C55.5985 56.2249 55.7928 56.33 55.987 56.4315C60.9617 53.0562 62.4082 47.265 65.128 42.1916C65.8461 42.5488 66.4254 42.7868 66.9492 43.109C68.1877 43.8723 68.6838 44.6636 67.7436 46.2111C65.6587 49.6494 64.4203 53.4414 63.6328 57.769C68.3542 54.4113 70.5536 49.9086 71.7018 44.7896C72.5275 41.1062 74.4736 38.3752 77.7033 36.4354C79.3823 35.427 80.5722 36.1273 81.7447 37.1217C82.9693 38.1651 84.2216 39.1945 83.7568 41.1972C83.1011 44.0228 81.658 46.3757 79.6633 48.354C79.195 48.8196 78.0918 48.6376 76.8534 48.8161C78.685 45.784 80.534 43.3611 80.5757 40.1328C75.5282 41.6034 73.2074 47.244 75.5559 51.7362C76.3712 53.2943 76.7597 55.08 77.3737 56.8517C79.5176 54.3587 81.3042 51.4456 82.5357 48.1824C83.2121 46.3897 83.7221 44.5235 84.5373 42.8008C85.689 40.3639 87.6733 38.6728 89.9837 37.3563C91.6905 36.3829 92.6618 37.6959 93.7303 38.5817C94.7224 39.4046 95.4093 40.4059 94.5629 41.754C93.366 43.6657 92.1657 45.5774 90.9446 47.4751C90.3133 48.459 89.5015 48.7741 88.5128 48.0353C89.5536 45.8295 90.5977 43.6167 91.7321 41.2182C87.7566 41.9185 85.3109 46.0781 86.2163 50.0906C86.6881 52.1704 87.1703 54.2502 87.6872 56.5086C88.7349 54.7194 89.7513 52.9442 90.8024 51.19C92.9151 47.6712 95.3156 44.4185 98.8575 42.1986C101.726 40.4024 101.914 40.4094 104.252 42.7623C106.191 40.553 106.94 40.6335 108.779 43.2735C105.952 47.0164 103.468 50.9554 102.472 56.0604C106.611 52.0339 109.254 47.4996 111.19 42.4612C108.609 41.6979 107.953 40.2554 108.092 35.6756C112.245 38.5572 116.581 39.2085 121.413 36.9711C122.194 38.2701 122.981 39.5831 123.873 41.0677C116.869 44.4115 113.795 50.2972 112.72 57.6885C114.569 56.7046 116.366 55.8678 118.021 54.8034C118.517 54.4848 118.721 53.5604 118.884 52.8707C120.317 46.7784 123.842 42.6538 129.77 40.574C131.369 40.0138 132.14 40.7876 133.014 41.7469C133.878 42.6958 134.384 43.6587 133.774 45.0347C131.751 49.6144 128.709 53.0527 123.835 54.6073C122.246 55.115 121.882 56.281 122.242 59.3691C126.194 58.3538 129.128 55.8573 131.616 52.8182C132.816 51.3546 133.669 49.6004 134.679 47.9793C136.601 44.8806 138.519 41.782 140.438 38.6798C138.97 38.6798 137.513 38.7078 136.06 38.6728C133.461 38.6133 130.849 38.6728 128.272 38.4067C124.105 37.976 122.416 35.5041 123.099 31.1974C127.793 34.4537 133.284 34.4117 138.613 35.203C142.172 35.7317 144.465 34.5517 145.887 30.5637C147.171 32.3669 148.073 33.6379 149.211 35.2415C151.212 35.5076 153.603 35.336 154.841 32.2828C155.382 32.724 155.968 32.9656 156.121 33.3683C156.857 35.3325 158.473 35.1855 160.076 35.2765C161.28 35.343 162.487 35.5461 163.67 35.8087C166.109 36.3514 167.031 37.6469 167 40.5215C163.961 38.5012 160.575 38.0075 157.148 37.7659C156.524 37.7239 155.604 38.025 155.261 38.4942C151.185 44.0858 147.421 49.87 145.214 56.5296C144.996 57.1913 144.809 57.8636 144.625 58.5358C144.583 58.6899 144.618 58.8685 144.618 59.2501C149.981 55.5807 153.419 50.4968 156.447 44.6846C157.727 45.6159 158.813 46.4037 159.982 47.2545C157.346 51.4176 155.018 55.4617 153.877 60.1289C157.28 59.3551 159.889 56.0254 161.037 51.1235C163.58 53.3609 163.687 54.1242 161.89 56.7572C159.989 59.5442 157.648 61.7781 154.605 63.3046C153.249 63.9839 152.246 63.7003 151.379 62.7269C150.48 61.722 149.339 60.7312 149.971 59.082C150.213 58.4448 150.408 57.7865 150.408 57.0163C148.389 59.2536 146.366 61.4875 144.396 63.6723C141.697 62.4608 140.698 59.8488 141.343 56.3615C139.112 59.4322 136.788 62.6254 134.391 65.9201C131.293 63.6163 129.742 61.0883 130.894 57.2894C129.163 58.8089 127.64 60.2445 126.006 61.5365C124.979 62.3488 124.032 63.7493 122.454 63.0806C120.331 62.1807 118.881 60.5736 118.319 58.2557C118.253 57.9826 118.288 57.6815 118.274 57.3944C118.128 57.2894 117.986 57.1843 117.84 57.0793C115.894 59.5127 113.948 61.9461 111.981 64.4041C109.372 63.6338 107.35 59.9574 108.103 57.2789C109.664 51.7327 111.839 46.5263 116.22 42.4192C113.4 42.1461 113.511 42.2126 112.203 44.3764C109.206 49.3413 106.094 54.2327 103.013 59.1451C102.712 59.6247 102.285 60.0239 101.82 60.5736C100.11 59.2956 98.6251 58.0386 98.7153 55.7593C96.8212 57.8181 94.8924 59.9084 92.9498 62.0197C90.563 60.3635 89.7409 58.3012 89.9282 55.6437C88.8597 57.664 87.7809 59.6808 86.7228 61.7045C85.356 64.3235 83.566 66.5679 81.1272 68.259C78.907 69.7996 78.3277 69.7891 76.2983 68.077C75.7259 67.5938 75.1882 67.0651 74.4771 66.4103C78.7787 64.8802 81.9702 62.2998 83.6041 58.0632C84.5477 55.6122 84.461 53.1613 83.4307 50.5808C83.2121 50.8959 83.0005 51.12 82.8791 51.3861C80.4612 56.7466 77.0823 61.4384 73.0548 65.6715C70.675 68.1715 67.7367 69.6736 64.4654 70.6925C62.1932 71.3997 60.4968 70.892 59.2098 68.9593C58.5507 67.9684 58.0199 66.8865 57.2671 65.556C61.2669 65.8536 64.6978 65.0868 67.5667 62.8705C69.3117 61.5225 70.9317 59.8418 72.1389 57.9931C73.7104 55.5912 72.9021 52.9652 71.74 50.1992C69.6412 55.038 66.8417 59.1381 62.9459 62.3908C60.1707 61.0113 59.5289 59.3656 60.0424 54.8489C58.5194 57.0618 57.052 59.1941 55.602 61.3019C52.6567 60.0624 51.6958 58.0071 52.629 55.1045C53.1598 53.4589 53.7252 51.8238 54.3947 49.8315C50.9639 53.4974 48.7159 57.4679 47.1132 61.8341C44.3865 60.4406 43.5644 58.4518 44.5565 55.7558C45.4377 53.3679 46.3431 50.9905 47.1652 48.5535C43.769 52.5801 41.1187 57.1073 38.8118 61.8481C36.1371 60.4406 35.3288 58.4938 36.3349 55.8713C37.7051 52.3 39.1275 48.7496 40.529 45.1888H36.8379C37.4727 51.5717 34.642 56.5086 29.9379 61.0148C32.505 62.0091 34.7911 63.049 37.1709 63.7703C39.5923 64.5056 42.1074 64.9258 44.5669 65.4825C43.1481 69.0818 39.5854 70.871 35.9706 69.6701C27.0725 66.7114 20.3217 60.9097 14.917 53.3504C14.7504 53.1158 14.5874 52.8812 14.1538 52.2614C12.3429 57.2368 10.6327 61.9356 8.75246 67.1036C7.50014 65.8116 6.30679 64.7647 5.37361 63.5147C5.05446 63.0876 5.20016 62.0687 5.46381 61.4699C8.88082 53.718 12.3603 45.9941 15.8189 38.2596C15.8605 38.1651 15.8397 38.0425 15.8467 37.9305C10.4488 38.6343 5.36667 44.2189 3.92008 51.029C1.51256 49.9926 -0.124832 47.5522 0.00699187 45.0557C0.0382133 44.4675 0.322675 43.8302 0.659173 43.3331C4.20107 38.1161 9.46362 35.6336 15.2812 34.0615C18.0114 33.3227 19.7181 34.023 21.0225 36.572C21.2792 37.0727 21.2723 37.9165 21.0329 38.4312C20.183 40.2484 19.177 41.9885 18.1224 43.9598C22.1499 41.978 25.7994 39.8807 29.6743 38.3647C33.5215 36.8591 37.5941 35.9382 41.6842 34.7268C41.6842 35.0244 41.7292 34.8633 41.6772 34.8178C38.673 32.2058 38.503 29.0861 40.0468 25.6548C40.9418 23.6661 41.8472 21.6808 42.9191 19.3209C38.8638 23.9742 35.9637 28.9251 33.3619 34.1981C32.7271 33.7464 32.1963 33.4103 31.7106 33.0146C29.5078 31.2079 28.9354 29.9159 30.0385 27.2479C31.9604 22.6052 34.191 18.092 36.0608 14.0269C35.034 14.5171 31.4331 18.7187 28.7377 23.2039C26.5938 26.7683 24.5713 30.4096 22.4344 34.1175C22.0285 33.8725 21.4041 33.5643 20.8629 33.1512C18.7468 31.5301 18.5456 30.5882 19.7008 28.2178C23.489 20.4448 27.2703 12.6684 31.0515 4.89193C25.4906 4.18466 18.1224 11.5795 16.4468 19.5415C12.9049 17.1641 11.9128 13.085 14.5076 9.82881C18.9896 4.20917 24.9911 1.36259 32.1269 1.18752C34.4096 1.1315 36.2273 4.22668 35.2942 6.27496C33.5909 10.0074 31.8459 13.7223 30.2918 17.5668C31.5892 16.0892 32.786 14.4996 34.2118 13.1621C36.2759 11.2293 38.503 9.46817 40.6781 7.65098C41.8819 6.6461 42.6069 7.74552 43.266 8.42828C43.9043 9.09003 44.4698 9.73427 43.7135 10.9667C40.9279 15.508 38.3469 20.1752 35.6931 24.8005C35.5647 25.0281 35.4884 25.2837 35.6029 25.6478C36.7234 24.1282 37.7051 22.4756 38.9852 21.1101C42.2323 17.6473 45.6319 14.328 48.931 10.9142C50.0688 9.73777 50.8459 10.5676 51.4565 11.3799C52.0948 12.2307 53.5032 12.9555 52.1329 14.4261C47.6648 19.2334 44.612 24.8425 43.0648 31.264C43.0128 31.481 43.0232 31.7156 42.9816 32.2548C46.4888 29.1282 49.2189 25.7284 51.4148 21.8734C52.1329 20.6164 52.9828 19.4225 53.5865 18.1095C54.3531 16.4428 55.2585 16.7019 56.3964 17.6298C56.8439 17.9939 57.3747 18.26 57.4857 18.3335C55.4459 22.6437 53.6454 26.4496 51.845 30.2556C51.9942 30.3641 52.1468 30.4727 52.296 30.5812C54.1415 29.1737 56.1813 27.9552 57.7667 26.2921C58.7345 25.2802 58.9704 23.5715 59.5983 22.206C61.371 18.3651 64.2468 15.613 67.9032 13.5892C69.1555 12.896 69.9049 13.6593 70.6472 14.307C71.4347 14.9933 72.6593 15.7811 71.9169 17.031C70.5675 19.3034 69.0272 21.4707 67.4522 23.5925C67.2233 23.9042 66.3456 23.7221 65.6032 23.7851C66.7931 21.7473 67.7922 20.0387 68.996 17.9834C64.8921 19.7516 62.3007 24.3453 61.4751 30.6967C66.3005 29.5028 72.1042 23.1514 76.9991 13.6348C69.5961 12.0627 62.5297 9.17756 54.9012 8.86944C51.7825 8.7434 48.7992 9.21257 45.9684 11.4114C46.4333 8.36525 47.3977 5.8688 49.486 3.92907C49.8017 3.63495 50.4539 3.65946 50.9534 3.62795C56.1674 3.29532 60.9859 4.94795 65.7593 6.73713C69.4331 8.11666 73.0756 9.59072 76.725 11.0403C77.8906 11.5024 78.6677 11.2889 79.4309 10.1509C81.9702 6.36949 84.8981 2.93119 89.0297 -0.00292969C90.2057 1.35209 91.4997 2.64058 92.5196 4.12164C92.8804 4.64334 92.7832 5.72875 92.5161 6.40801C90.9065 10.4801 87.8364 12.8505 83.5972 13.5367C82.05 13.7853 81.148 14.4996 80.4334 15.8266C78.6885 19.0618 76.8499 22.2445 75.3721 25.6443C77.7692 23.0008 80.1628 20.3538 82.5669 17.7173C83.0734 17.1606 83.5764 16.5759 84.1731 16.1312C84.7524 15.7005 85.7133 14.9793 86.0498 15.1788C87.0524 15.7671 87.8607 16.7159 88.6516 17.6053C88.7522 17.7173 88.388 18.3966 88.1104 18.6907C85.1375 21.8244 83.167 25.5358 81.8176 29.6148C81.769 29.7654 81.8106 29.944 81.8106 30.2136C82.7577 29.7129 83.6215 29.2717 84.4714 28.806C85.8868 28.0322 86.7055 26.9783 87.1738 25.2697C88.6516 19.8461 91.6385 15.578 97.2548 13.7573C98.7257 13.2811 101.692 14.7692 102.105 16.2432C102.195 16.5689 102.018 17.024 101.848 17.3567C99.5964 21.7999 96.4153 25.2627 91.7703 27.2549C91.1875 27.5035 90.6845 28.3263 90.4798 28.9881C90.1919 29.9089 90.2231 30.9278 90.0913 32.1323C92.9983 31.5896 94.993 29.8879 97.0398 28.2213C99.9607 25.8369 101.161 22.4056 102.677 19.1529C105.487 13.1236 108.852 7.4339 112.942 2.19591C113.185 1.88429 113.438 1.57967 114.059 0.812881C114.961 2.35347 115.814 3.60694 116.421 4.96896C116.598 5.36811 116.213 6.17342 115.873 6.6356C110.812 13.5542 106.354 20.802 103.575 28.9951C103.426 29.4363 103.281 29.8774 103.149 30.3221C103.1 30.4832 103.1 30.6547 103.076 30.8228L103.079 30.8193ZM134.228 60.1639C134.412 60.2725 134.592 60.3775 134.776 60.4861C141.808 54.2012 145.294 45.4163 150.709 37.7029C148.236 37.8044 146.127 37.5524 144.791 40.0698C142.914 43.6027 140.528 46.8624 138.648 50.3917C136.972 53.5394 135.685 56.8972 134.228 60.1639ZM23.6 56.9462C23.7596 56.8587 23.9191 56.7712 24.0753 56.6836C24.0926 49.6845 27.6484 44.7616 33.0219 40.8611C27.2598 42.6153 22.0875 45.4549 17.0227 49.3623C19.2984 51.9848 21.4492 54.4673 23.6 56.9497V56.9462ZM28.0924 58.1927C32.231 54.8734 34.1667 50.8364 34.6663 45.5004C31.0827 49.2223 28.6787 53.0247 28.0924 58.1927ZM94.2402 56.5086C98.1603 53.5079 100.8 49.5164 102.85 45.0767C98.1811 47.4821 95.8291 51.6907 94.2402 56.5086ZM37.9202 43.3015C40.6087 43.9493 42.6728 42.4227 43.7101 38.7813C40.8099 39.1595 38.0312 39.5201 34.8952 39.9263C36.3592 41.1132 38.4128 41.0922 37.9168 43.3015H37.9202ZM48.8339 28.2423C46.8565 30.5602 45.0942 32.626 43.1203 34.9334C45.5903 34.7408 47.6683 34.5797 49.8468 34.4117C48.5933 32.5653 48.2557 30.5088 48.8339 28.2423ZM130.228 45.2868C126.586 46.9849 124.397 49.3483 123.137 52.9442C126.537 51.3371 128.424 48.6901 130.228 45.2868ZM118.42 18.4001C115.492 20.5044 113.49 22.8888 112.363 26.3376C115.634 24.5379 117.479 22.038 118.42 18.4001ZM91.1389 25.7459C94.3304 23.9252 96.0511 21.3902 97.3624 18.4981C94.3617 19.9196 92.4849 22.3216 91.1389 25.7459ZM83.8643 10.7637C86.5806 10.0354 88.0931 8.15517 88.7695 5.47315C87.1356 7.23782 85.4982 8.99899 83.8643 10.7637Z" fill="#FFE81C"/>
<path d="M69.2734 43.1676C68.1633 42.1382 66.356 41.1894 66.3976 40.328C66.467 38.875 67.6742 37.4569 68.4894 36.0774C68.59 35.9094 69.2596 35.9269 69.5718 36.0704C70.1927 36.354 70.7478 36.7882 71.3375 37.1453C72.5517 37.8841 72.6419 38.6789 71.6636 39.7713C70.8657 40.6642 70.2656 41.7391 69.2769 43.1676H69.2734Z" fill="#FFE81C"/>
<path d="M163.666 41.7814C162.629 43.1819 161.675 44.4704 160.555 45.983C159.458 45.1636 158.431 44.3933 157.363 43.595C157.89 42.7512 158.303 42.1315 158.678 41.4837C160.055 39.0958 160.811 38.9803 162.875 40.885C163.129 41.1196 163.333 41.3997 163.666 41.7814Z" fill="#FFE81C"/>
<path d="M62.4325 12.9615C61.4854 13.9839 60.8818 14.5966 60.3233 15.2444C59.7995 15.8536 59.3207 16.5014 58.568 17.4502C57.6348 16.5574 55.9037 15.451 56.0598 14.9538C56.5178 13.5077 57.496 11.8691 58.7449 11.1793C59.4109 10.8117 61.0518 12.2473 62.4325 12.958V12.9615Z" fill="#FFE81C"/>
</g>
<defs>
<clipPath id="clip0_1_476">
<rect width="167" height="71" fill="white"/>
</clipPath>
</defs>
</svg>
