<svg xmlns="http://www.w3.org/2000/svg">
<symbol id="discord" viewBox="0 0 20 16">
<path d="M16.9308 1.53809C15.6561 0.95319 14.2892 0.522261 12.8599 0.275449C12.8339 0.270686 12.8079 0.28259 12.7945 0.306398C12.6187 0.619078 12.4239 1.02699 12.2876 1.34761C10.7503 1.11747 9.22099 1.11747 7.71527 1.34761C7.57887 1.01987 7.37707 0.619078 7.20048 0.306398C7.18707 0.283384 7.16107 0.27148 7.13504 0.275449C5.70659 0.521472 4.33963 0.952402 3.06411 1.53809C3.05307 1.54285 3.04361 1.5508 3.03732 1.56111C0.444493 5.43474 -0.265792 9.21316 0.0826501 12.9447C0.0842267 12.963 0.0944749 12.9805 0.108665 12.9916C1.81934 14.2478 3.47642 15.0105 5.10273 15.516C5.12876 15.524 5.15634 15.5145 5.1729 15.493C5.55761 14.9677 5.90054 14.4137 6.19456 13.8312C6.21192 13.7971 6.19535 13.7566 6.15989 13.7431C5.61594 13.5368 5.098 13.2852 4.59977 12.9995C4.56037 12.9765 4.55721 12.9201 4.59347 12.8931C4.69831 12.8146 4.80318 12.7328 4.9033 12.6503C4.92141 12.6352 4.94665 12.632 4.96794 12.6416C8.24107 14.136 11.7846 14.136 15.0191 12.6416C15.0404 12.6312 15.0657 12.6344 15.0846 12.6495C15.1847 12.732 15.2895 12.8146 15.3952 12.8931C15.4314 12.9201 15.4291 12.9765 15.3897 12.9995C14.8914 13.2907 14.3735 13.5368 13.8288 13.7423C13.7933 13.7558 13.7775 13.7971 13.7949 13.8312C14.0952 14.4129 14.4381 14.9669 14.8157 15.4922C14.8315 15.5145 14.8599 15.524 14.8859 15.516C16.5201 15.0105 18.1772 14.2478 19.8879 12.9916C19.9028 12.9805 19.9123 12.9638 19.9139 12.9455C20.3309 8.63142 19.2154 4.88398 16.9568 1.56189C16.9513 1.5508 16.9419 1.54285 16.9308 1.53809ZM6.68335 10.6726C5.69792 10.6726 4.88594 9.76789 4.88594 8.65682C4.88594 7.54575 5.68217 6.64105 6.68335 6.64105C7.69239 6.64105 8.49651 7.5537 8.48073 8.65682C8.48073 9.76789 7.68451 10.6726 6.68335 10.6726ZM13.329 10.6726C12.3435 10.6726 11.5316 9.76789 11.5316 8.65682C11.5316 7.54575 12.3278 6.64105 13.329 6.64105C14.338 6.64105 15.1421 7.5537 15.1264 8.65682C15.1264 9.76789 14.338 10.6726 13.329 10.6726Z" />
</symbol>
<symbol id="telegram" viewBox="0 0 20 21">
<path fill-rule="evenodd" clip-rule="evenodd" d="M20 10.8965C20 16.4193 15.5228 20.8965 10 20.8965C4.47715 20.8965 0 16.4193 0 10.8965C0 5.37364 4.47715 0.896484 10 0.896484C15.5228 0.896484 20 5.37364 20 10.8965ZM10.3583 8.27893C9.3857 8.68349 7.44177 9.52082 4.52657 10.7909C4.05318 10.9792 3.8052 11.1633 3.78263 11.3434C3.74448 11.6477 4.12559 11.7676 4.64455 11.9308C4.71515 11.953 4.78829 11.976 4.86327 12.0003C5.37385 12.1663 6.06068 12.3605 6.41773 12.3682C6.74161 12.3752 7.1031 12.2417 7.50219 11.9676C10.226 10.129 11.632 9.19966 11.7202 9.17963C11.7825 9.16549 11.8688 9.14772 11.9273 9.19969C11.9858 9.25166 11.98 9.35009 11.9738 9.37649C11.9361 9.53744 10.4401 10.9282 9.66591 11.648C9.42457 11.8724 9.25338 12.0315 9.21839 12.0679C9.13999 12.1493 9.06009 12.2263 8.9833 12.3003C8.50896 12.7576 8.15325 13.1005 9.003 13.6605C9.41135 13.9296 9.73812 14.1521 10.0641 14.3741C10.4201 14.6166 10.7752 14.8584 11.2347 15.1595C11.3517 15.2363 11.4635 15.316 11.5724 15.3936C11.9867 15.689 12.3589 15.9543 12.8188 15.912C13.086 15.8874 13.362 15.6362 13.5022 14.8868C13.8335 13.1158 14.4847 9.27853 14.6352 7.6973C14.6484 7.55876 14.6318 7.38146 14.6185 7.30363C14.6051 7.2258 14.5773 7.11491 14.4761 7.03282C14.3563 6.9356 14.1714 6.9151 14.0886 6.91648C13.7125 6.92318 13.1354 7.12383 10.3583 8.27893Z" />
</symbol>
<symbol id="tweeter" viewBox="0 0 20 18">
<path d="M17.9525 4.81671C17.9647 4.99303 17.9647 5.16934 17.9647 5.34728C17.9647 10.7692 13.8371 17.0223 6.28966 17.0223V17.019C4.06013 17.0223 1.8769 16.3836 0 15.1795C0.324193 15.2185 0.65001 15.238 0.97664 15.2388C2.82429 15.2404 4.61913 14.6205 6.07272 13.4789C4.31688 13.4456 2.77717 12.3008 2.23928 10.6294C2.85436 10.7481 3.48812 10.7237 4.09181 10.5587C2.17753 10.172 0.800325 8.49008 0.800325 6.5368C0.800325 6.51892 0.800325 6.50186 0.800325 6.4848C1.37071 6.80249 2.00934 6.97881 2.6626 6.99831C0.859638 5.79335 0.30388 3.39481 1.39265 1.51953C3.47593 4.08301 6.54966 5.64141 9.84928 5.80635C9.51859 4.3812 9.97034 2.8878 11.0364 1.88598C12.689 0.332452 15.2882 0.412079 16.8418 2.06392C17.7607 1.88273 18.6415 1.54553 19.4475 1.06778C19.1412 2.0176 18.5001 2.82443 17.6437 3.33712C18.457 3.24125 19.2517 3.02349 20 2.69118C19.4491 3.51669 18.7552 4.23576 17.9525 4.81671Z" />
</symbol>
</svg>